<?xml version="1.0" encoding="UTF-8" standalone="no"?>
<svg
   xmlns:dc="http://purl.org/dc/elements/1.1/"
   xmlns:cc="http://creativecommons.org/ns#"
   xmlns:rdf="http://www.w3.org/1999/02/22-rdf-syntax-ns#"
   xmlns:svg="http://www.w3.org/2000/svg"
   xmlns="http://www.w3.org/2000/svg"
   viewBox="0 0 31.974028 20"
   height="20"
   width="31.974028"
   version="1.1"
   id="svg3340">
  <metadata
     id="metadata3346">
    <rdf:RDF>
      <cc:Work
         rdf:about="">
        <dc:format>image/svg+xml</dc:format>
        <dc:type
           rdf:resource="http://purl.org/dc/dcmitype/StillImage" />
        <dc:title></dc:title>
      </cc:Work>
    </rdf:RDF>
  </metadata>
  <defs
     id="defs3344" />
  <path
     id="path3350"
     d="M 0,10 C 0,4 0.4,0 0.99999999,0 1.55,0 2,1.35 2,3 2,6.3991172 1.821858,6.3703542 20.672502,6.0148542 c 8.266561,-0.155897 9.278924,0.02587 10.25,1.84034 C 32.280071,10.391835 32.341382,20 31.000002,20 c -0.55,0 -1,-1.575 -1,-3.5 l 0,-3.5 -14,0 -14,0 0,3.5 c 0,1.925 -0.45,3.5 -1,3.5 -0.6,0 -1,-4 -1,-10 z M 11,9.5190522 C 11,6.4343802 2.778887,6.1940792 2.188159,9.2614842 1.909544,10.708216 2.620915,11 6.426676,11 9.799037,11 11,10.611101 11,9.5190522 Z m 18.809629,-0.269052 c -0.287362,-1.492151 -1.511722,-1.75 -8.309629,-1.75 -6.797907,0 -8.022267,0.257849 -8.309629,1.75 C 12.890381,10.807724 13.803375,11 21.5,11 c 7.696625,0 8.609619,-0.192276 8.309629,-1.7499998 z"
     style="fill:#000000" />
</svg>
