<?xml version="1.0" encoding="UTF-8" standalone="no"?>
<svg
   xmlns:dc="http://purl.org/dc/elements/1.1/"
   xmlns:cc="http://creativecommons.org/ns#"
   xmlns:rdf="http://www.w3.org/1999/02/22-rdf-syntax-ns#"
   xmlns:svg="http://www.w3.org/2000/svg"
   xmlns="http://www.w3.org/2000/svg"
   viewBox="0 0 29.921137 36.82906"
   height="36.82906"
   width="29.921137"
   version="1.1"
   id="svg2">
  <metadata
     id="metadata8">
    <rdf:RDF>
      <cc:Work
         rdf:about="">
        <dc:format>image/svg+xml</dc:format>
        <dc:type
           rdf:resource="http://purl.org/dc/dcmitype/StillImage" />
        <dc:title></dc:title>
      </cc:Work>
    </rdf:RDF>
  </metadata>
  <defs
     id="defs6" />
  <path
     id="path3338"
     d="M 0.692947,36.359613 C 0.311826,35.978493 0,30.787262 0,24.823546 0,15.21791 0.228253,13.784989 2,12.267972 3.1,11.326122 4,9.7555271 4,8.7777591 4,7.7999916 4.675,7 5.5,7 6.5476192,7 7.0000002,5.9444444 7.0000002,3.5 c 0,-1.925 0.45,-3.5 1,-3.5 0.55,0 1,1.575 1,3.5 0,2.4444444 0.452381,3.5 1.4999998,3.5 0.91545,0 1.5,0.9325568 1.5,2.3930111 0,1.3161559 0.675,2.6520329 1.5,2.9686149 0.990092,0.379935 1.5,1.946027 1.5,4.606989 C 15,20.781265 15.162774,21 18,21 c 2.533333,0 3,-0.388889 3,-2.5 0,-1.555556 0.566667,-2.5 1.5,-2.5 0.825,0 1.5,-0.45 1.5,-1 0,-0.55 1.104609,-1 2.454687,-1 3.066215,0 3.785277,3.111766 3.350638,14.5 L 29.5,36.5 15.442946,36.77628 C 7.7115672,36.928233 1.074067,36.740733 0.692947,36.359613 Z M 12.783832,24.25 12.5,13.5 7.5000002,13.5 2.5,13.5 2.216169,24.25 1.932337,35 7.5000002,35 13.067663,35 12.783832,24.25 Z m -8.187276,7.906231 c -0.346049,-0.559919 -0.1419,-1.31919 0.453664,-1.687268 1.5374842,-0.950218 2.5294672,0.35135 1.2459812,1.634836 -0.7181802,0.71818 -1.2775262,0.735435 -1.6996452,0.05243 z m 4.0000002,0 c -0.346049,-0.559919 -0.1419,-1.31919 0.453663,-1.687268 1.5374848,-0.950218 2.5294678,0.35135 1.2459818,1.634836 -0.7181798,0.71818 -1.2775258,0.735435 -1.6996448,0.05243 z M 4.693853,27.36052 C 3.894923,26.561589 4.79804,25 6.059017,25 c 0.5175412,0 0.9409832,0.675 0.9409832,1.5 0,1.54641 -1.1799632,1.986704 -2.3061472,0.86052 z m 4.0000002,0 C 7.8949222,26.561589 8.7980392,25 10.059017,25 10.576558,25 11,25.675 11,26.5 11,28.04641 9.8200372,28.486704 8.6938532,27.36052 Z M 4.542705,22.069098 C 3.859635,20.963867 5.437113,19.770446 6.3605202,20.693853 7.3113052,21.644639 7.1341072,23 6.059017,23 5.541477,23 4.859136,22.581094 4.542705,22.069098 Z m 4.0000002,0 C 7.8596352,20.963867 9.4371132,19.770446 10.36052,20.693853 11.311305,21.644639 11.134107,23 10.059017,23 9.5414762,23 8.8591362,22.581094 8.5427052,22.069098 Z M 4.5,17 c -0.339918,-0.55 0.08352,-1 0.940983,-1 0.8574592,0 1.5590172,0.45 1.5590172,1 0,0.55 -0.423442,1 -0.9409832,1 C 5.541477,18 4.839919,17.55 4.5,17 Z m 4.0000002,0 c -0.339919,-0.55 0.08352,-1 0.940983,-1 C 10.298442,16 11,16.45 11,17 11,17.55 10.576558,18 10.059017,18 9.5414762,18 8.8399192,17.55 8.5000002,17 Z M 21,29 c 0,-6 0,-6 -3,-6 -3,0 -3,0 -3,6 0,6 0,6 3,6 3,0 3,0 3,-6 z m -4,2.559017 C 17,30.701558 17.45,30 18,30 c 0.55,0 1,0.423442 1,0.940983 0,0.517541 -0.45,1.219098 -1,1.559017 -0.55,0.339919 -1,-0.08352 -1,-0.940983 z M 17,26.5 c 0,-0.825 0.45,-1.5 1,-1.5 0.55,0 1,0.675 1,1.5 0,0.825 -0.45,1.5 -1,1.5 -0.55,0 -1,-0.675 -1,-1.5 z m 11,0 0,-8.5 -3,0 -3,0 0,8.5 0,8.5 3,0 3,0 0,-8.5 z m -4,5 c 0,-0.825 0.45,-1.5 1,-1.5 0.55,0 1,0.675 1,1.5 0,0.825 -0.45,1.5 -1,1.5 -0.55,0 -1,-0.675 -1,-1.5 z m 0,-5 c 0,-0.825 0.45,-1.5 1,-1.5 0.55,0 1,0.675 1,1.5 0,0.825 -0.45,1.5 -1,1.5 -0.55,0 -1,-0.675 -1,-1.5 z m 0,-5 c 0,-0.825 0.45,-1.5 1,-1.5 0.55,0 1,0.675 1,1.5 0,0.825 -0.45,1.5 -1,1.5 -0.55,0 -1,-0.675 -1,-1.5 z M 10,10.468615 C 10,9.6263541 9.2947522,8.6666014 8.4327832,8.3358326 6.5520462,7.6141263 4.501121,9.3837801 5.44615,10.912868 6.4648572,12.561171 10,12.216299 10,10.468615 Z"
     style="fill:#2b2b2b" />
</svg>
