<?xml version="1.0" encoding="UTF-8" standalone="no"?>
<!-- Created with Inkscape (http://www.inkscape.org/) -->

<svg
   xmlns:dc="http://purl.org/dc/elements/1.1/"
   xmlns:cc="http://creativecommons.org/ns#"
   xmlns:rdf="http://www.w3.org/1999/02/22-rdf-syntax-ns#"
   xmlns:svg="http://www.w3.org/2000/svg"
   xmlns="http://www.w3.org/2000/svg"
   xmlns:sodipodi="http://sodipodi.sourceforge.net/DTD/sodipodi-0.dtd"
   xmlns:inkscape="http://www.inkscape.org/namespaces/inkscape"
   id="svg2"
   version="1.1"
   inkscape:version="0.91 r13725"
   width="47.195732"
   height="47.127865"
   viewBox="0 0 47.195732 47.127865"
   sodipodi:docname="dostavka-icon.svg">
  <metadata
     id="metadata8">
    <rdf:RDF>
      <cc:Work
         rdf:about="">
        <dc:format>image/svg+xml</dc:format>
        <dc:type
           rdf:resource="http://purl.org/dc/dcmitype/StillImage" />
        <dc:title></dc:title>
      </cc:Work>
    </rdf:RDF>
  </metadata>
  <defs
     id="defs6" />
  <sodipodi:namedview
     pagecolor="#ffffff"
     bordercolor="#666666"
     borderopacity="1"
     objecttolerance="10"
     gridtolerance="10"
     guidetolerance="10"
     inkscape:pageopacity="0"
     inkscape:pageshadow="2"
     inkscape:window-width="640"
     inkscape:window-height="480"
     id="namedview4"
     showgrid="false"
     fit-margin-top="0"
     fit-margin-left="0"
     fit-margin-right="0"
     fit-margin-bottom="0"
     inkscape:zoom="3.6875"
     inkscape:cx="21.232218"
     inkscape:cy="23.912215"
     inkscape:window-x="0"
     inkscape:window-y="0"
     inkscape:window-maximized="0"
     inkscape:current-layer="svg2" />
  <path
     style="fill:#000000"
     d="m 23.715269,47.092811 -4,-0.03506 -4.125,-1.462719 -4.125,-1.462719 L 7.906596,40.57364 4.347924,37.014967 2.823266,33.801989 C 1.984704,32.034856 1.006421,28.761781 0.649304,26.528494 L 0,22.467972 1.583857,17.019695 3.167714,11.571418 6.738094,7.8951163 c 1.963708,-2.021966 4.923602,-4.376081 6.577541,-5.231366 L 16.322796,1.1086864 21.019033,0.5543432 25.715269,0 l 4.095881,1.1048698 4.095881,1.1048695 4.227738,3.062558 4.227737,3.062557 2.416613,5.1903977 2.416612,5.190399 0,5 0,5 -2.38262,5.11703 -2.382621,5.11703 -3.60558,2.75011 c -1.983068,1.51256 -5.293993,3.352645 -7.35761,4.089077 l -3.752031,1.338967 -4,-0.03505 z m -0.635808,-1.882737 c 1.999694,-0.0031 5.210808,-0.443817 7.135808,-0.979445 l 3.5,-0.973867 3.879149,-3.199815 3.879148,-3.199814 1.84889,-4.070741 1.848889,-4.070741 0,-5 0,-5 -1.83574,-4.04137 -1.835739,-4.04137 -3.392299,-2.8601677 c -1.865764,-1.573093 -4.840345,-3.466976 -6.610179,-4.20863 l -3.217882,-1.348462 -4.352803,0 -4.352804,0 -5.424449,2.75 -5.424449,2.75 -3.004866,4.9215797 -3.004866,4.92158 0,6.15684 0,6.15684 3.015439,4.877358 3.015439,4.877359 5.348753,2.794221 5.348752,2.794222 3.635809,-0.0056 z m 0.635808,-10.994423 -15.5,0 0,-1 0,-1 15.5,0 15.5,0 0,1 0,1 -15.5,0 z m -0.05902,-4 -15.440983,0 0,-3.352117 0,-3.352117 2.25,-3.397883 2.25,-3.397883 5.246443,-2.5 c 2.885543,-1.375 5.248043,-2.8375 5.25,-3.25 l 0.0036,-0.75 -1.5,0 -1.5,0 0,-0.9999997 0,-1 3.5,0 3.5,0 0,0.916667 c 0,0.504166 -0.529673,1.0932237 -1.177051,1.3090167 l -1.177051,0.39235 0.736068,1.190983 0.736068,1.190983 1.979706,0 1.979706,0 4.013485,3.75 4.013486,3.75 0.886415,3.9448 0.886415,3.944801 -0.49764,0.805199 -0.497641,0.8052 -15.440983,0 z m 0.578069,-2 14.019052,0 -0.66488,-2.75 c -0.36568,-1.5125 -1.490392,-3.932021 -2.499355,-5.376713 l -1.834479,-2.626714 -3.420822,-1.623286 c -1.881453,-0.892808 -4.379769,-1.623287 -5.551813,-1.623287 -1.172044,0 -3.600047,0.613812 -5.395562,1.364026 l -3.264573,1.364025 -2.703308,3.2127 -2.703309,3.2127 0,2.423274 0,2.423275 14.019052,0 z"
     id="path3338"
     inkscape:connector-curvature="0" />
</svg>
