<?xml version="1.0" encoding="UTF-8" standalone="no"?>
<svg
   xmlns:dc="http://purl.org/dc/elements/1.1/"
   xmlns:cc="http://creativecommons.org/ns#"
   xmlns:rdf="http://www.w3.org/1999/02/22-rdf-syntax-ns#"
   xmlns:svg="http://www.w3.org/2000/svg"
   xmlns="http://www.w3.org/2000/svg"
   viewBox="0 0 60.459248 62.832462"
   height="62.832462"
   width="60.459248"
   version="1.1"
   id="svg2">
  <metadata
     id="metadata8">
    <rdf:RDF>
      <cc:Work
         rdf:about="">
        <dc:format>image/svg+xml</dc:format>
        <dc:type
           rdf:resource="http://purl.org/dc/dcmitype/StillImage" />
        <dc:title></dc:title>
      </cc:Work>
    </rdf:RDF>
  </metadata>
  <defs
     id="defs6" />
  <path
     id="path3338"
     d="M 23.459246,61.270475 C 16.411636,58.988691 12.619146,56.794167 8.4159129,52.565639 2.0482137,46.159627 -0.00655828,40.889314 1.5715103e-5,30.979598 0.00502072,23.43677 0.34086772,21.868983 2.9824517,17.057142 6.4554957,10.730735 13.762226,4.5401952 19.772076,2.832337 c 2.30295,-0.6544426 4.61467,-1.5640355 5.13717,-2.02131752 1.33855,-1.171474 9.30439,-1.037856 10.05,0.1685783 0.33992,0.55000002 1.29117,1.00000002 2.11388,1.00000002 5.92703,0 19.50108,11.6939292 20.88429,17.9916422 0.36341,1.654597 1.07499,3.008358 1.58129,3.008358 0.5063,0 0.92054,3.825 0.92054,8.5 0,4.675 -0.3596,8.5 -0.79911,8.5 -0.43951,0 -1.39342,1.643543 -2.11981,3.652318 -1.55814,4.308968 -8.25099,11.867065 -12.41557,14.020655 -3.96263,2.049155 -13.8072,5.302095 -15.66551,5.176353 -0.825,-0.05582 -3.525,-0.757125 -6,-1.558449 z m 1.92669,-19.469327 c 1.28569,-2.290629 1.30155,-3.026568 0.11305,-5.247308 -1.2782,-2.388332 -1.15352,-2.865311 1.65422,-6.328626 2.61557,-3.226273 3.60591,-3.745616 7.14251,-3.745616 2.85133,0 4.75481,-0.648585 6.2296,-2.122654 l 2.12369,-2.122654 -2.28344,-2.127346 c -1.25589,-1.17004 -3.48107,-2.127346 -4.94484,-2.127346 -5.19929,0 -14.10573,8.314315 -17.43054,16.271708 -1.9587,4.687834 -1.94086,4.937445 0.58218,8.144972 2.52977,3.216084 4.78495,3.019106 6.81357,-0.59513 z"
     style="fill:#171717" />
</svg>
